<?xml version="1.0" standalone="no"?><!DOCTYPE svg PUBLIC "-//W3C//DTD SVG 1.1//EN" "http://www.w3.org/Graphics/SVG/1.1/DTD/svg11.dtd"><svg t="1557887292189" class="icon" style="" viewBox="0 0 1024 1024" version="1.1" xmlns="http://www.w3.org/2000/svg" p-id="9524" xmlns:xlink="http://www.w3.org/1999/xlink" width="200" height="200"><defs><style type="text/css"></style></defs><path d="M124.928 262.4a47.104 47.104 0 0 0-34.048 14.592 51.2 51.2 0 0 0 0 70.656l387.072 401.92a46.848 46.848 0 0 0 68.096 0 51.2 51.2 0 0 0 0-70.656l-387.072-401.92a47.104 47.104 0 0 0-34.048-14.592z" fill="#707070" p-id="9525"></path><path d="M899.072 262.4a47.104 47.104 0 0 0-34.048 14.592l-387.072 401.92a51.2 51.2 0 0 0 0 70.656 46.848 46.848 0 0 0 68.096 0l387.072-401.92a51.2 51.2 0 0 0 0-70.656 47.104 47.104 0 0 0-34.048-14.592z" fill="#707070" p-id="9526"></path></svg>